<svg xmlns="http://www.w3.org/2000/svg" viewBox="0 0 200.02 200.02"><title>earth</title><g id="e7b54611-9a77-49b4-9a81-f6011aa5628b" data-name="Layer 2"><g id="aee04027-6467-4b32-b3bd-7af3824c60da" data-name="Layer 1"><path d="M194.64,67.59A99.48,99.48,0,0,0,189,54.3a101.26,101.26,0,0,0-7.14-11.79,100,100,0,0,0-9.14-11.17c-1.26-1.34-2.56-2.64-3.9-3.92A100,100,0,0,0,5.65,66.81c-.22.61-.43,1.22-.62,1.84A99.08,99.08,0,0,0,.21,93.54Q0,96.75,0,100c0,1.43,0,2.86.1,4.28a100,100,0,1,0,194.54-36.7ZM100,190a89.74,89.74,0,0,1-66-28.88,38.33,38.33,0,0,0,14.77-40.83,7.79,7.79,0,0,0,1.14-3,7.48,7.48,0,0,0,.1-1.26,7.82,7.82,0,0,0-6.71-7.74l-.09-.14c-.55,0-1.1.06-1.66.06a28.27,28.27,0,0,1-27-36.45c.07-.22.14-.44.22-.66s.24-.73.38-1.08A90,90,0,0,1,113.4,11a36.55,36.55,0,0,0-3.78,2.76,37.3,37.3,0,0,0-13.47,24A8.08,8.08,0,0,0,96,39.1,7.7,7.7,0,0,0,97,42.8a7.81,7.81,0,0,0,9,3.83,7.64,7.64,0,0,0,2.91-1.51q.8-.65,1.65-1.23a27.88,27.88,0,0,1,12.32-4.72,26.06,26.06,0,0,1,3.66-.25,28.31,28.31,0,0,1,26.85,19.44,27.71,27.71,0,0,1,.86,3.28c.1.33.22.65.35,1a23,23,0,0,0,5.75,8.4,22.71,22.71,0,0,0,3.85,2.9,23.05,23.05,0,0,0,22.26.76A90,90,0,0,1,100,190Z"/><path d="M167,86.85a8.88,8.88,0,0,0-.9.05A61.41,61.41,0,0,0,86.71,51.35l-.55.21c-.34.13-.69.27-1,.42A23,23,0,0,0,71.41,73.05a2.81,2.81,0,0,0,0,.29,23.06,23.06,0,0,0,23,22.74l.88,0a24.74,24.74,0,0,1,3.23-.36h0c.47,0,.94,0,1.42,0A28.25,28.25,0,0,1,125.53,136l0,0q-.42.88-.9,1.74a15.17,15.17,0,0,0,4.42,18,15.19,15.19,0,0,0,18.54.3l.21-.17.91-.76h0a61.39,61.39,0,0,0,21-53.15A7.82,7.82,0,0,0,167,86.85Z"/></g></g></svg>